<mxfile host="app.diagrams.net" agent="Mozilla/5.0 (Windows NT 10.0; Win64; x64) AppleWebKit/537.36 (KHTML, like Gecko) Chrome/130.0.0.0 Safari/537.36" version="24.7.17">
  <diagram name="PÃ¡gina-1" id="rNhccY3wni65WwsRTn0g">
    <mxGraphModel dx="2303" dy="1416" grid="1" gridSize="10" guides="1" tooltips="1" connect="1" arrows="1" fold="1" page="1" pageScale="1" pageWidth="1169" pageHeight="827" math="0" shadow="0">
      <root>
        <mxCell id="0" />
        <mxCell id="1" parent="0" />
        <mxCell id="MrXYk0-VRpl5DwkBtZY--1" value="#DNI" style="ellipse;whiteSpace=wrap;html=1;" vertex="1" parent="1">
          <mxGeometry x="383" y="240" width="120" height="80" as="geometry" />
        </mxCell>
        <mxCell id="MrXYk0-VRpl5DwkBtZY--2" value="DOMICILIO" style="ellipse;whiteSpace=wrap;html=1;" vertex="1" parent="1">
          <mxGeometry x="253" y="240" width="120" height="80" as="geometry" />
        </mxCell>
        <mxCell id="MrXYk0-VRpl5DwkBtZY--3" value="EDAD" style="ellipse;whiteSpace=wrap;html=1;" vertex="1" parent="1">
          <mxGeometry x="123" y="240" width="120" height="80" as="geometry" />
        </mxCell>
        <mxCell id="MrXYk0-VRpl5DwkBtZY--4" value="NOMBRE" style="ellipse;whiteSpace=wrap;html=1;" vertex="1" parent="1">
          <mxGeometry x="-3" y="240" width="120" height="80" as="geometry" />
        </mxCell>
        <mxCell id="MrXYk0-VRpl5DwkBtZY--6" value="SOCIO" style="rounded=0;whiteSpace=wrap;html=1;" vertex="1" parent="1">
          <mxGeometry x="190" y="70" width="120" height="60" as="geometry" />
        </mxCell>
        <mxCell id="MrXYk0-VRpl5DwkBtZY--7" value="TOMA PRESTADO" style="rhombus;whiteSpace=wrap;html=1;" vertex="1" parent="1">
          <mxGeometry x="400" y="62.5" width="150" height="75" as="geometry" />
        </mxCell>
        <mxCell id="MrXYk0-VRpl5DwkBtZY--8" value="ESCRITOR" style="ellipse;whiteSpace=wrap;html=1;" vertex="1" parent="1">
          <mxGeometry x="831" y="60" width="120" height="80" as="geometry" />
        </mxCell>
        <mxCell id="MrXYk0-VRpl5DwkBtZY--9" value="UBICACION" style="ellipse;whiteSpace=wrap;html=1;" vertex="1" parent="1">
          <mxGeometry x="831" y="240" width="120" height="80" as="geometry" />
        </mxCell>
        <mxCell id="MrXYk0-VRpl5DwkBtZY--10" value="ISDN" style="ellipse;whiteSpace=wrap;html=1;" vertex="1" parent="1">
          <mxGeometry x="821" y="-30" width="120" height="80" as="geometry" />
        </mxCell>
        <mxCell id="MrXYk0-VRpl5DwkBtZY--11" value="GENERO" style="ellipse;whiteSpace=wrap;html=1;" vertex="1" parent="1">
          <mxGeometry x="831" y="150" width="120" height="80" as="geometry" />
        </mxCell>
        <mxCell id="MrXYk0-VRpl5DwkBtZY--12" value="LIBRO" style="rounded=0;whiteSpace=wrap;html=1;" vertex="1" parent="1">
          <mxGeometry x="658" y="71" width="120" height="60" as="geometry" />
        </mxCell>
        <mxCell id="MrXYk0-VRpl5DwkBtZY--14" value="" style="endArrow=none;html=1;rounded=0;entryX=0;entryY=0.5;entryDx=0;entryDy=0;" edge="1" parent="1" target="MrXYk0-VRpl5DwkBtZY--10">
          <mxGeometry width="50" height="50" relative="1" as="geometry">
            <mxPoint x="778" y="70" as="sourcePoint" />
            <mxPoint x="828" y="20" as="targetPoint" />
          </mxGeometry>
        </mxCell>
        <mxCell id="MrXYk0-VRpl5DwkBtZY--15" value="" style="endArrow=none;html=1;rounded=0;entryX=0;entryY=0.5;entryDx=0;entryDy=0;exitX=1;exitY=0.5;exitDx=0;exitDy=0;" edge="1" parent="1" source="MrXYk0-VRpl5DwkBtZY--6" target="MrXYk0-VRpl5DwkBtZY--7">
          <mxGeometry width="50" height="50" relative="1" as="geometry">
            <mxPoint x="310" y="110" as="sourcePoint" />
            <mxPoint x="360" y="60" as="targetPoint" />
          </mxGeometry>
        </mxCell>
        <mxCell id="MrXYk0-VRpl5DwkBtZY--16" value="" style="endArrow=none;html=1;rounded=0;" edge="1" parent="1">
          <mxGeometry width="50" height="50" relative="1" as="geometry">
            <mxPoint x="550" y="100" as="sourcePoint" />
            <mxPoint x="660" y="101" as="targetPoint" />
          </mxGeometry>
        </mxCell>
        <mxCell id="MrXYk0-VRpl5DwkBtZY--17" value="" style="endArrow=none;html=1;rounded=0;" edge="1" parent="1">
          <mxGeometry width="50" height="50" relative="1" as="geometry">
            <mxPoint x="781" y="110" as="sourcePoint" />
            <mxPoint x="831" y="110" as="targetPoint" />
          </mxGeometry>
        </mxCell>
        <mxCell id="MrXYk0-VRpl5DwkBtZY--18" value="" style="endArrow=none;html=1;rounded=0;exitX=-0.006;exitY=0.329;exitDx=0;exitDy=0;exitPerimeter=0;entryX=1;entryY=1;entryDx=0;entryDy=0;" edge="1" parent="1" source="MrXYk0-VRpl5DwkBtZY--11" target="MrXYk0-VRpl5DwkBtZY--12">
          <mxGeometry width="50" height="50" relative="1" as="geometry">
            <mxPoint x="818" y="110" as="sourcePoint" />
            <mxPoint x="868" y="60" as="targetPoint" />
          </mxGeometry>
        </mxCell>
        <mxCell id="MrXYk0-VRpl5DwkBtZY--19" value="" style="endArrow=none;html=1;rounded=0;exitX=0.853;exitY=1.033;exitDx=0;exitDy=0;exitPerimeter=0;entryX=0;entryY=0.5;entryDx=0;entryDy=0;" edge="1" parent="1" source="MrXYk0-VRpl5DwkBtZY--12" target="MrXYk0-VRpl5DwkBtZY--9">
          <mxGeometry width="50" height="50" relative="1" as="geometry">
            <mxPoint x="771" y="320" as="sourcePoint" />
            <mxPoint x="821" y="270" as="targetPoint" />
          </mxGeometry>
        </mxCell>
        <mxCell id="MrXYk0-VRpl5DwkBtZY--20" value="" style="endArrow=none;html=1;rounded=0;entryX=0.25;entryY=1;entryDx=0;entryDy=0;fillColor=#ffe6cc;strokeColor=#d79b00;" edge="1" parent="1" target="MrXYk0-VRpl5DwkBtZY--6">
          <mxGeometry width="50" height="50" relative="1" as="geometry">
            <mxPoint x="170" y="240" as="sourcePoint" />
            <mxPoint x="220" y="190" as="targetPoint" />
          </mxGeometry>
        </mxCell>
        <mxCell id="MrXYk0-VRpl5DwkBtZY--21" value="" style="endArrow=none;html=1;rounded=0;fillColor=#ffe6cc;strokeColor=#d79b00;" edge="1" parent="1" source="MrXYk0-VRpl5DwkBtZY--1">
          <mxGeometry width="50" height="50" relative="1" as="geometry">
            <mxPoint x="260" y="180" as="sourcePoint" />
            <mxPoint x="310" y="130" as="targetPoint" />
          </mxGeometry>
        </mxCell>
        <mxCell id="MrXYk0-VRpl5DwkBtZY--22" value="" style="endArrow=none;html=1;rounded=0;entryX=0;entryY=1;entryDx=0;entryDy=0;fillColor=#ffe6cc;strokeColor=#d79b00;" edge="1" parent="1" target="MrXYk0-VRpl5DwkBtZY--6">
          <mxGeometry width="50" height="50" relative="1" as="geometry">
            <mxPoint x="73" y="240" as="sourcePoint" />
            <mxPoint x="123" y="190" as="targetPoint" />
          </mxGeometry>
        </mxCell>
        <mxCell id="MrXYk0-VRpl5DwkBtZY--23" value="" style="endArrow=none;html=1;rounded=0;entryX=0.25;entryY=1;entryDx=0;entryDy=0;exitX=0.394;exitY=0.021;exitDx=0;exitDy=0;exitPerimeter=0;fillColor=#ffe6cc;strokeColor=#d79b00;" edge="1" parent="1" source="MrXYk0-VRpl5DwkBtZY--2">
          <mxGeometry width="50" height="50" relative="1" as="geometry">
            <mxPoint x="300" y="230" as="sourcePoint" />
            <mxPoint x="275" y="130" as="targetPoint" />
          </mxGeometry>
        </mxCell>
        <mxCell id="MrXYk0-VRpl5DwkBtZY--24" value="DEVUELVE" style="rhombus;whiteSpace=wrap;html=1;" vertex="1" parent="1">
          <mxGeometry x="401" y="-22.5" width="150" height="75" as="geometry" />
        </mxCell>
        <mxCell id="MrXYk0-VRpl5DwkBtZY--25" value="" style="endArrow=none;html=1;rounded=0;" edge="1" parent="1">
          <mxGeometry width="50" height="50" relative="1" as="geometry">
            <mxPoint x="552" y="15.290000000000006" as="sourcePoint" />
            <mxPoint x="690" y="16" as="targetPoint" />
          </mxGeometry>
        </mxCell>
        <mxCell id="MrXYk0-VRpl5DwkBtZY--26" value="" style="endArrow=none;html=1;rounded=0;" edge="1" parent="1">
          <mxGeometry width="50" height="50" relative="1" as="geometry">
            <mxPoint x="280" y="14.290000000000006" as="sourcePoint" />
            <mxPoint x="390" y="15.290000000000006" as="targetPoint" />
          </mxGeometry>
        </mxCell>
        <mxCell id="MrXYk0-VRpl5DwkBtZY--27" value="" style="endArrow=none;html=1;rounded=0;" edge="1" parent="1">
          <mxGeometry width="50" height="50" relative="1" as="geometry">
            <mxPoint x="280" y="14" as="sourcePoint" />
            <mxPoint x="280" y="62" as="targetPoint" />
          </mxGeometry>
        </mxCell>
        <mxCell id="MrXYk0-VRpl5DwkBtZY--28" value="" style="endArrow=none;html=1;rounded=0;exitX=0.25;exitY=0;exitDx=0;exitDy=0;" edge="1" parent="1" source="MrXYk0-VRpl5DwkBtZY--12">
          <mxGeometry width="50" height="50" relative="1" as="geometry">
            <mxPoint x="562" y="25.290000000000006" as="sourcePoint" />
            <mxPoint x="688" y="20" as="targetPoint" />
          </mxGeometry>
        </mxCell>
      </root>
    </mxGraphModel>
  </diagram>
</mxfile>
